<?xml version="1.0" encoding="UTF-8"?> <svg xmlns="http://www.w3.org/2000/svg" width="95" height="104" viewBox="0 0 95 104" fill="none"><g filter="url(#filter0_d_1258_15776)"><path fill-rule="evenodd" clip-rule="evenodd" d="M47.5 16.9999C62.1355 16.9999 73.9999 28.8644 73.9999 43.4999C73.9999 58.1353 62.1355 69.9999 47.5 69.9999C32.8644 69.9999 21 58.1353 21 43.4999C21 28.8644 32.8644 16.9999 47.5 16.9999Z" fill="url(#paint0_linear_1258_15776)"></path></g><path fill-rule="evenodd" clip-rule="evenodd" d="M42 0.999936H51.9999C68.5685 0.999936 81.9999 14.4311 81.9999 30.9999V40.9999C81.9999 57.5682 68.5685 70.9998 51.9999 70.9998H42C25.4315 70.9998 11.9999 57.5682 11.9999 40.9999V30.9999C11.9999 14.4311 25.4315 0.999936 42 0.999936Z" fill="url(#paint1_linear_1258_15776)"></path><path fill-rule="evenodd" clip-rule="evenodd" d="M50.4322 41.6398C50.6441 41.4247 50.7502 41.1709 50.7502 40.8774V38.1688H62V46.2952C62 47.0392 61.7379 47.6774 61.2132 48.2075C60.6887 48.7381 60.0581 49.0032 59.3216 49.0032H34.6787C33.942 49.0032 33.3114 48.7381 32.7869 48.2075C32.2622 47.6774 32 47.0392 32 46.2952V38.1688H43.25V40.8774C43.25 41.1709 43.3561 41.4247 43.5682 41.6398C43.7802 41.8537 44.0313 41.9613 44.3216 41.9613H49.6787C49.9688 41.9613 50.2201 41.8537 50.4322 41.6398ZM49.1431 38.1688H44.8571V40.3355H49.1431V38.1688ZM61.2132 28.1301C60.6887 27.5989 60.0581 27.3339 59.3216 27.3339H53.4285V24.6253C53.4285 24.1737 53.2724 23.7903 52.9598 23.4737C52.6475 23.1586 52.2678 23 51.8216 23H42.1787C41.7323 23 41.3529 23.1586 41.0404 23.4737C40.7278 23.7898 40.5716 24.1737 40.5716 24.6253V27.3339H34.6787C33.942 27.3339 33.3114 27.5989 32.7869 28.1301C32.2622 28.6597 32 29.2973 32 30.0425V36.5435H62V30.0425C62 29.2973 61.7379 28.6597 61.2132 28.1301ZM51.2858 27.3339H42.7144V25.1667H51.2858V27.3339Z" fill="white"></path><defs><filter id="filter0_d_1258_15776" x="-4.57764e-05" y="9" width="95" height="95" filterUnits="userSpaceOnUse" color-interpolation-filters="sRGB"><feFlood flood-opacity="0" result="BackgroundImageFix"></feFlood><feColorMatrix in="SourceAlpha" type="matrix" values="0 0 0 0 0 0 0 0 0 0 0 0 0 0 0 0 0 0 127 0" result="hardAlpha"></feColorMatrix><feOffset dy="13"></feOffset><feGaussianBlur stdDeviation="10.5"></feGaussianBlur><feColorMatrix type="matrix" values="0 0 0 0 0.494118 0 0 0 0 0.227451 0 0 0 0 0.466667 0 0 0 0.49 0"></feColorMatrix><feBlend mode="normal" in2="BackgroundImageFix" result="effect1_dropShadow_1258_15776"></feBlend><feBlend mode="normal" in="SourceGraphic" in2="effect1_dropShadow_1258_15776" result="shape"></feBlend></filter><linearGradient id="paint0_linear_1258_15776" x1="33.5352" y1="16" x2="75" y2="71" gradientUnits="userSpaceOnUse"><stop stop-color="#008FBF"></stop><stop offset="1" stop-color="#7E3A77"></stop></linearGradient><linearGradient id="paint1_linear_1258_15776" x1="28.7187" y1="2.33128e-06" x2="83" y2="72" gradientUnits="userSpaceOnUse"><stop stop-color="#008FBF"></stop><stop offset="1" stop-color="#7E3A77"></stop></linearGradient></defs></svg> 