<?xml version="1.0" encoding="UTF-8"?> <svg xmlns="http://www.w3.org/2000/svg" width="95" height="104" viewBox="0 0 95 104" fill="none"><g filter="url(#filter0_d_1258_20401)"><path fill-rule="evenodd" clip-rule="evenodd" d="M47.5 16.9999C62.1355 16.9999 73.9999 28.8644 73.9999 43.4999C73.9999 58.1353 62.1355 69.9999 47.5 69.9999C32.8644 69.9999 21 58.1353 21 43.4999C21 28.8644 32.8644 16.9999 47.5 16.9999Z" fill="url(#paint0_linear_1258_20401)"></path></g><path fill-rule="evenodd" clip-rule="evenodd" d="M42 0.999936H51.9999C68.5685 0.999936 81.9999 14.4311 81.9999 30.9999V40.9999C81.9999 57.5682 68.5685 70.9998 51.9999 70.9998H42C25.4315 70.9998 11.9999 57.5682 11.9999 40.9999V30.9999C11.9999 14.4311 25.4315 0.999936 42 0.999936Z" fill="url(#paint1_linear_1258_20401)"></path><g clip-path="url(#clip0_1258_20401)"><path d="M58.8885 36.0454H58.8951C59.0634 36.0454 59.2284 35.9728 59.3439 35.854L61.6737 33.5242C61.8618 33.3394 61.9179 33.0655 61.8156 32.8246C61.7199 32.6002 61.4955 32.4484 61.2546 32.4385H61.2216C61.2216 32.4385 61.2216 32.4385 61.2183 32.4385H61.215C61.215 32.4385 61.1919 32.4385 61.182 32.4385H61.1754C61.0236 32.4517 60.885 32.5177 60.7794 32.6299L58.4595 34.9531L58.4496 34.963C58.3275 35.0818 58.2582 35.2435 58.2549 35.4118C58.2549 35.5801 58.3209 35.7451 58.4397 35.8639C58.5585 35.9827 58.7202 36.0487 58.8852 36.0487L58.8885 36.0454Z" fill="white"></path><path d="M47.5792 25.0987C47.698 25.2175 47.8564 25.2835 48.0247 25.2835C48.193 25.2835 48.3514 25.2175 48.4702 25.102L50.7868 22.7854L50.8033 22.7722C50.9914 22.5874 51.0442 22.3135 50.9419 22.0726C50.8429 21.8383 50.6152 21.6865 50.3611 21.6865H50.3446C50.1796 21.6898 50.0245 21.7591 49.909 21.8746L47.5726 24.2077C47.3284 24.4552 47.3317 24.8545 47.5759 25.0987H47.5792Z" fill="white"></path><path d="M56.1164 35.7905C56.0009 35.675 55.8359 35.6057 55.6709 35.6057H55.6577C55.4927 35.6057 55.3376 35.675 55.2188 35.7905L51.4172 39.5954C51.4172 39.5954 51.3875 39.6218 51.3809 39.6317L47.147 43.8656C46.0811 44.9315 44.6819 45.5288 43.2068 45.542H43.1474C41.6987 45.542 40.3358 44.9777 39.3095 43.9514C38.27 42.9119 37.7057 41.5292 37.7189 40.0541C37.7354 38.579 38.3294 37.1798 39.3953 36.1139L43.5995 31.9097C43.5995 31.9097 43.6193 31.8899 43.6325 31.88L47.4737 28.0388C47.5925 27.92 47.6585 27.7616 47.6585 27.5933C47.6585 27.425 47.5925 27.2666 47.4737 27.1445L43.6325 23.3033C43.5302 23.2043 43.4015 23.1383 43.2596 23.1218V23.1152H43.1771C43.0121 23.1185 42.857 23.1845 42.7415 23.3L34.574 31.4675C32.2706 33.7709 31.0001 36.8267 31.0001 40.0772C31.0001 43.3277 32.2673 46.3835 34.574 48.6869C36.8774 50.9903 39.9365 52.2608 43.1837 52.2608C46.4309 52.2608 49.49 50.9936 51.7934 48.6869L59.9576 40.526C60.2051 40.2785 60.2051 39.8792 59.9576 39.6317L56.1164 35.7905ZM40.2401 27.5933L43.187 24.6464L46.1339 27.5933L43.187 30.5402L40.2401 27.5933ZM58.6211 40.0772L55.6742 43.0241L52.7273 40.0772L55.6742 37.1303L58.6211 40.0772Z" fill="white"></path><path d="M46.2989 23.6104H46.3055C46.4738 23.6104 46.6355 23.5378 46.7543 23.419L49.0874 21.0859C49.2722 20.9044 49.3283 20.6239 49.226 20.3863C49.1237 20.1454 48.8828 19.9936 48.6254 20.0002C48.4604 20.0035 48.3053 20.0728 48.1898 20.1883L45.8666 22.5115L45.86 22.5181C45.7379 22.6336 45.6686 22.7986 45.6653 22.9669C45.6653 23.1352 45.7313 23.3002 45.8501 23.419C45.9689 23.5378 46.1306 23.6038 46.2956 23.6038L46.2989 23.6104Z" fill="white"></path><path d="M63.5381 34.5437C63.4589 34.3589 63.3071 34.2269 63.119 34.1807L63.1454 34.1543L62.9045 34.1609C62.7527 34.1741 62.6107 34.2401 62.5051 34.349L60.1754 36.6821C60.0533 36.7976 59.9807 36.9626 59.9807 37.1309C59.9807 37.2992 60.0467 37.4642 60.1655 37.583C60.2843 37.7018 60.446 37.7678 60.6209 37.7678C60.7892 37.7678 60.9542 37.6952 61.0697 37.5731L63.3863 35.2565L63.4028 35.24C63.5909 35.0585 63.6437 34.7813 63.5414 34.5404L63.5381 34.5437Z" fill="white"></path></g><defs><filter id="filter0_d_1258_20401" x="-4.57764e-05" y="9" width="95" height="95" filterUnits="userSpaceOnUse" color-interpolation-filters="sRGB"><feFlood flood-opacity="0" result="BackgroundImageFix"></feFlood><feColorMatrix in="SourceAlpha" type="matrix" values="0 0 0 0 0 0 0 0 0 0 0 0 0 0 0 0 0 0 127 0" result="hardAlpha"></feColorMatrix><feOffset dy="13"></feOffset><feGaussianBlur stdDeviation="10.5"></feGaussianBlur><feColorMatrix type="matrix" values="0 0 0 0 0.494118 0 0 0 0 0.227451 0 0 0 0 0.466667 0 0 0 0.49 0"></feColorMatrix><feBlend mode="normal" in2="BackgroundImageFix" result="effect1_dropShadow_1258_20401"></feBlend><feBlend mode="normal" in="SourceGraphic" in2="effect1_dropShadow_1258_20401" result="shape"></feBlend></filter><linearGradient id="paint0_linear_1258_20401" x1="33.5352" y1="16" x2="75" y2="71" gradientUnits="userSpaceOnUse"><stop stop-color="#008FBF"></stop><stop offset="1" stop-color="#7E3A77"></stop></linearGradient><linearGradient id="paint1_linear_1258_20401" x1="28.7187" y1="2.33128e-06" x2="83" y2="72" gradientUnits="userSpaceOnUse"><stop stop-color="#008FBF"></stop><stop offset="1" stop-color="#7E3A77"></stop></linearGradient><clipPath id="clip0_1258_20401"><rect width="33" height="33" fill="white" transform="translate(31 20)"></rect></clipPath></defs></svg> 