<svg fill="none" height="940" style="" viewBox="0 0 909 940" width="909" xmlns="http://www.w3.org/2000/svg"> <path class="fyfiUdoU_0" d="M598.887 417.05H505.851V261.725V261.724C505.754 222.027 520.449 183.808 546.902 154.946C573.351 126.088 609.537 108.784 648.002 106.595C661.529 106.683 674.545 101.291 684.244 91.5871C693.946 81.8793 699.55 68.6347 699.852 54.7126C700.154 40.7906 695.128 27.302 685.857 17.1587C676.585 7.01483 663.809 1.02979 650.286 0.500383L650.27 0.499756L650.254 0.500155C584.106 2.14885 521.221 30.4216 475.075 79.2535C428.93 128.085 403.195 193.589 403.384 261.726V416.894L366.204 416.894L366.19 416.894C352.765 417.271 340.016 423.029 330.654 432.938C321.293 442.846 316.058 456.122 316.058 469.941C316.058 483.761 321.293 497.037 330.654 506.945C340.016 516.854 352.765 522.612 366.19 522.989H366.204H403.384V678.353C403.429 717.975 388.755 756.11 362.375 784.94C335.999 813.765 299.92 831.104 261.535 833.405H258.324H258.314L258.304 833.405C244.835 833.935 232.107 839.877 222.844 849.952C213.582 860.027 208.521 873.434 208.741 887.302C208.962 901.169 214.446 914.399 224.023 924.157C233.602 933.915 246.512 939.424 259.991 939.5L259.999 939.5L260.008 939.5C325.969 937.6 388.594 909.225 434.522 860.435C480.45 811.645 506.045 746.303 505.851 678.352V522.989H598.387V523.184H598.887C612.561 523.184 625.671 517.59 635.335 507.636C644.998 497.683 650.424 484.187 650.424 470.117C650.424 456.048 644.998 442.551 635.335 432.598C625.671 422.645 612.561 417.05 598.887 417.05ZM222.047 831.254L222.9 830.604L221.854 830.369C185.566 822.205 153.471 800.545 131.714 769.528C109.957 738.511 100.068 700.318 103.941 662.258C107.814 624.198 125.177 588.948 152.704 563.254C180.23 537.56 215.986 523.225 253.128 522.989H325.222H326.539L325.554 522.115C318.272 515.65 312.428 507.643 308.422 498.639C304.416 489.635 302.342 479.847 302.342 469.941C302.342 460.036 304.416 450.247 308.422 441.243C312.428 432.239 318.272 424.232 325.554 417.768L326.539 416.894H325.222H253.125H253.123C189.346 417.205 128.022 442.233 81.35 486.993C34.6783 531.753 6.07788 592.966 1.23383 658.453C-3.61021 723.94 15.6567 788.908 55.205 840.432C94.7537 891.957 151.687 926.264 214.682 936.523L216.203 936.771L215.117 935.677C208.761 929.279 203.708 921.639 200.253 913.203C196.799 904.767 195.012 895.706 194.999 886.55C194.993 875.794 197.437 865.188 202.136 855.583C206.834 845.979 213.654 837.647 222.047 831.254ZM687.111 108.63L686.255 109.286L687.309 109.515C723.83 117.454 756.203 139.054 778.168 170.147C800.133 201.24 810.131 239.618 806.227 277.863C802.323 316.109 784.794 351.504 757.032 377.21C729.27 402.916 693.246 417.109 655.921 417.05H639.755H638.442L639.422 417.924C646.694 424.399 652.528 432.412 656.527 441.418C660.527 450.425 662.597 460.213 662.597 470.117C662.597 480.022 660.527 489.81 656.527 498.816C652.528 507.823 646.694 515.835 639.422 522.311L638.442 523.184H639.755H655.92H655.922C697.675 522.979 738.733 512.168 775.457 491.709C812.181 471.25 843.435 441.776 866.451 405.902C889.467 370.027 903.534 328.86 907.406 286.048C911.278 243.236 904.835 200.101 888.649 160.466C872.092 119.346 845.543 83.3022 811.552 55.8014C777.559 28.3 737.268 10.2669 694.552 3.43752L694.473 3.93125L694.117 4.28208C700.984 11.2555 706.307 19.6765 709.72 28.9686C713.133 38.2607 714.556 48.2036 713.891 58.1157C713.225 68.0277 710.487 77.6737 705.864 86.3927C701.241 95.1117 694.844 102.697 687.111 108.63Z" opacity="0.7" stroke="url(#paint0_linear_4498_23470)"/> <defs> <linearGradient gradientUnits="userSpaceOnUse" id="paint0_linear_4498_23470" x1="432.007" x2="432.007" y1="938.725" y2="369.001"> <stop offset="0.0486371" stop-color="#1DB4CC" stop-opacity="0"/> <stop offset="0.638418" stop-color="#7E3A77"/> <stop offset="1" stop-color="#008FBF"/> </linearGradient> </defs> <style data-made-with="vivus-instant"> .fyfiUdoU_0 {stroke-dasharray: 5897 5899; stroke-dashoffset: 5898; animation: fyfiUdoU_draw 6000ms ease-out 0ms infinite; } @keyframes fyfiUdoU_draw {100% {stroke-dashoffset: 0; } } @keyframes fyfiUdoU_fade {0% {stroke-opacity: 1; } 95.1219512195122% {stroke-opacity: 1; } 100% {stroke-opacity: 0; } } </style> </svg>